PathFileType  4	(X/Y/Z) C:\Users\antoi\Documents\MyRepositories\mobilecap\ResultsAnalysis
DataRate	CameraRate	NumFrames	NumMarkers	Units	OrigDataRate	OrigDataStartFrame	OrigNumFrames
100.0	100.0	4	51	mm	100.0	55	145
Frame#	Time	r_knee			r_shank_antsup			r_ankle			r_calc			r_5meta			r_toe			L_knee			L_shank_antsup			L_ankle			L_calc			L_5meta			L_toe			r_sh2			r_sh3			r_sh4			L_sh2			L_sh3			r_thigh1			r_thigh2			r_thigh3			r_thigh4			r_thigh5			L_thigh1			L_thigh2			L_thigh3			L_thigh4			r.ASIS			r.PSIS			L.ASIS			L.PSIS			C7			R_Shoulder			L_Shoulder			R_Sternum			L_Sternum			R_humerus			R_elbow_med			R_elbow_lat			R_forearm			R_wrist_radius			R_wrist_ulna			L_humerus			L_elbow_med			L_elbow_lat			L_forearm			L_wrist_radius			L_wrist_ulna			R_HJC			L_HJC			R_HJC_reg			L_HJC_reg			
		X1	Y1	Z1	X2	Y2	Z2	X3	Y3	Z3	X4	Y4	Z4	X5	Y5	Z5	X6	Y6	Z6	X7	Y7	Z7	X8	Y8	Z8	X9	Y9	Z9	X10	Y10	Z10	X11	Y11	Z11	X12	Y12	Z12	X13	Y13	Z13	X14	Y14	Z14	X15	Y15	Z15	X16	Y16	Z16	X17	Y17	Z17	X18	Y18	Z18	X19	Y19	Z19	X20	Y20	Z20	X21	Y21	Z21	X22	Y22	Z22	X23	Y23	Z23	X24	Y24	Z24	X25	Y25	Z25	X26	Y26	Z26	X27	Y27	Z27	X28	Y28	Z28	X29	Y29	Z29	X30	Y30	Z30	X31	Y31	Z31	X32	Y32	Z32	X33	Y33	Z33	X34	Y34	Z34	X35	Y35	Z35	X36	Y36	Z36	X37	Y37	Z37	X38	Y38	Z38	X39	Y39	Z39	X40	Y40	Z40	X41	Y41	Z41	X42	Y42	Z42	X43	Y43	Z43	X44	Y44	Z44	X45	Y45	Z45	X46	Y46	Z46	X47	Y47	Z47	X48	Y48	Z48	X49	Y49	Z49	X50	Y50	Z50	X51	Y51	Z51	

55	0.54000000	349.74389	485.05331	-58.59237	367.75600	408.17678	-81.77171	201.93550	103.77174	-105.05968	127.27388	78.48881	-142.76135	298.22550	39.65406	-74.24404	350.13044	64.12553	-130.99556	621.62581	493.07277	-321.02478	685.00510	424.53896	-328.87460	758.47745	116.08626	-307.29295	715.17145	56.34319	-255.78358	884.75196	93.44119	-343.92047	911.03992	142.18552	-298.20199	312.19043	305.04917	-64.21225	294.80711	440.42606	-45.55970	246.46045	338.80761	-52.11087	597.87953	399.43061	-324.03930	644.37851	284.98541	-333.48420	495.54776	776.17506	-12.12078	463.90644	669.07268	-27.19315	405.49686	659.20377	-3.20096	387.91755	801.33403	12.86283	356.84468	689.78688	-11.94824	443.96302	705.95077	-325.82710	509.04019	579.03076	-312.09073	544.63250	746.68695	-371.52362	605.02788	625.42004	-347.41837	542.11654	949.52987	-48.94450	352.23903	993.56672	-134.28865	551.27841	930.34594	-298.69638	347.87475	990.57401	-235.00365	345.40892	1392.51516	-177.20419	473.74347	1362.05691	-18.08047	396.12171	1364.30639	-366.02509	489.89063	1367.20353	-180.61636	485.84179	1369.62526	-223.65945	527.73218	1236.62526	34.26881	545.70012	1018.24035	-1.21613	571.35758	1041.20953	57.70688	703.56178	990.62380	39.49333	814.13693	916.13302	11.63868	804.06894	891.80861	37.34080	368.20879	1253.14017	-420.88029	278.38134	1047.94953	-317.01236	262.99525	1067.06317	-392.60515	270.85934	954.49477	-420.10414	211.59602	801.31670	-426.78966	188.26998	817.45935	-440.24326	460.85491	872.52459	-70.82516	466.16049	861.57744	-276.94013	472.73378	873.48869	-78.50283	465.57704	868.57894	-243.70116	
56	0.55000000	357.99725	483.85918	-58.97941	375.00756	406.36891	-82.17217	203.11181	104.95982	-104.67748	128.10255	80.78200	-142.41379	298.46731	39.57955	-74.09584	350.75236	63.82358	-130.71256	634.48834	492.14280	-321.44079	696.23369	422.14205	-328.54375	763.73961	112.75844	-306.26268	718.95978	55.04731	-255.02328	889.30701	88.40441	-342.74116	916.56443	136.21272	-296.67768	317.57486	304.37247	-64.31931	302.66644	440.01853	-45.94638	252.40485	339.37155	-52.21494	608.61034	398.70692	-324.35140	652.89161	283.44307	-333.45254	504.83860	774.48179	-12.60477	472.88902	667.52725	-27.42156	414.29150	657.95164	-3.72159	397.19557	800.20179	11.69393	365.76205	688.65893	-12.92485	456.62279	704.52014	-327.76381	522.13478	578.04970	-313.65470	557.73206	746.21364	-371.78647	618.29227	624.99922	-347.61032	552.75023	947.75294	-49.70409	363.01120	991.86938	-135.81930	562.54246	928.50153	-299.34466	359.06812	988.91551	-236.49419	356.27576	1391.00369	-179.07230	485.01542	1360.57976	-19.94471	407.35839	1362.43086	-367.87894	500.75138	1365.65094	-182.43956	497.09121	1367.98818	-225.57387	538.94711	1235.11394	32.28906	556.86840	1016.62347	-3.26978	582.49877	1039.63810	55.62931	715.03840	990.20597	36.70475	826.20425	916.98782	8.06519	816.61024	892.32642	33.54510	378.99798	1251.48402	-422.52443	287.34022	1047.23129	-318.14311	272.11231	1066.45050	-393.80609	278.42277	953.98289	-421.47098	216.40485	801.19219	-427.37804	194.40173	817.81462	-441.21951	471.38570	870.80881	-71.85602	477.38995	859.78608	-277.95053	483.28387	871.66704	-79.56625	476.81452	866.81941	-244.74184	
57	0.56000000	366.69602	482.64142	-59.51509	382.65213	404.52606	-82.69399	204.56812	106.47832	-104.33604	129.11039	83.52076	-142.05226	298.78145	39.55791	-73.94073	351.46409	63.50439	-130.42059	647.01736	491.25097	-321.83376	707.06221	419.69729	-328.18797	768.17757	109.36961	-304.93545	721.54756	54.45723	-253.89772	892.49191	82.89429	-341.65191	921.29970	129.36343	-295.21073	323.25847	303.72524	-64.53494	310.99993	439.62756	-46.45419	258.72070	340.05114	-52.42971	618.91719	398.04948	-324.35703	660.78830	281.90708	-333.00402	514.40143	772.84154	-13.24621	482.21170	665.99743	-27.83348	423.44769	656.68413	-4.41888	406.73971	799.04013	10.33994	375.00937	687.50345	-14.04938	469.36445	703.18611	-329.75005	535.20717	577.31230	-315.25781	571.04216	745.97619	-372.02368	631.54107	624.70467	-347.89521	563.63037	946.00242	-50.59379	373.95962	990.24298	-137.33637	574.00269	927.03657	-300.09400	370.39989	987.43426	-237.98176	367.25007	1389.65875	-181.01811	496.38637	1359.35174	-21.87593	418.69831	1360.66760	-369.79911	511.67663	1364.27209	-184.31714	508.44424	1366.50587	-227.54829	550.12639	1233.79999	30.31280	567.78126	1015.21431	-5.38626	593.37551	1038.22893	53.53982	726.15009	989.65880	34.02740	837.76546	917.48335	4.70583	828.50613	892.50793	30.00925	389.97558	1249.87999	-424.20257	296.80767	1046.42470	-319.39499	281.83259	1065.64680	-395.13302	286.79927	953.34429	-422.93350	222.45081	800.92481	-428.22052	201.54025	817.99232	-442.37841	482.18505	869.11836	-73.07177	488.83777	858.29974	-279.15770	494.10627	869.94286	-80.80790	488.26485	865.33319	-245.92533	
58	0.57000000	375.85265	481.44517	-60.20876	390.67641	402.70253	-83.32207	206.35377	108.40316	-104.02672	130.34329	86.75995	-141.67601	299.18022	39.59940	-73.78952	352.27636	63.15246	-130.10984	658.86267	490.35479	-322.14704	717.48065	417.35660	-327.78532	772.40813	106.20773	-303.39075	723.70640	54.60353	-252.49173	894.98888	77.38303	-340.62978	925.76947	122.17372	-293.79038	329.23632	303.17154	-64.83968	319.78816	439.32414	-47.07679	265.41062	340.89896	-52.75479	628.86123	397.40102	-324.04923	668.41755	280.43345	-332.13342	524.29143	771.27645	-14.06985	491.92361	664.50984	-28.46991	433.00248	655.43222	-5.31520	416.60325	797.87902	8.81251	384.62828	686.35749	-15.33865	481.95411	702.07113	-331.63080	547.87860	576.79913	-316.72876	584.26226	745.82947	-372.36622	644.43151	624.39053	-348.27389	574.71675	944.30933	-51.57018	385.10136	988.71999	-138.84196	585.68473	925.99240	-300.95681	381.87823	986.17891	-239.47555	378.34559	1388.49240	-183.04099	507.82400	1358.39822	-23.86041	430.14558	1359.03903	-371.77879	522.70192	1363.09570	-186.25191	519.88474	1365.20869	-229.56760	561.27011	1232.70753	28.34353	578.43475	1014.03672	-7.54934	603.97866	1037.00241	51.45387	736.90699	989.00386	31.47430	848.82954	917.61734	1.56532	839.76902	892.36324	26.72365	401.13987	1248.34926	-425.91552	306.85268	1045.51369	-320.79912	292.13621	1064.67240	-396.58813	296.00795	952.58331	-424.48443	229.86197	800.52210	-429.35587	209.73081	817.98407	-443.72366	493.23521	867.48277	-74.47349	500.52088	857.16465	-280.56106	505.20142	868.32149	-82.19775	499.91306	864.15192	-247.25922	
